<?xml version="1.0" encoding="utf-8"?>
<!-- Generator: Adobe Illustrator 26.5.1, SVG Export Plug-In . SVG Version: 6.00 Build 0)  -->
<svg version="1.1" id="Layer_1" xmlns="http://www.w3.org/2000/svg" xmlns:xlink="http://www.w3.org/1999/xlink" x="0px" y="0px"
	 viewBox="0 0 118.2 208.6" style="enable-background:new 0 0 118.2 208.6;" xml:space="preserve">
<style type="text/css">
	.st0{fill:#EF5E9F;}
	.st1{fill:#FFFFFF;}
</style>
<g>
	<path class="st0" d="M0.3,38c-1.9,1.6,7,14,7,14l7-7C14.3,45,1.6,36.3,0.3,38z"/>
	<path class="st0" d="M34.8,0c-2.5,0.5-0.7,15.6-0.7,15.6l9.5-2.7C43.6,13,36.8-0.7,34.8,0z"/>
	<path class="st0" d="M89.5,3.1c-2.1-1.3-11.1,11-11.1,11l8.8,4.5C87.1,18.5,91.4,3.8,89.5,3.1z"/>
	<path class="st0" d="M117.9,32.9c-1.8-1.7-13,8.8-13,8.8l7.8,6C112.7,47.7,119.7,34,117.9,32.9z"/>
	<path class="st1" d="M101.1,88.2c-0.9,3-1.3,14.3-1.3,17.9c0,3.5,1.1,43.2,1.6,48.9s5.2,36.4,4.8,39c-0.4,2.6-3.6,6.9-6.4,7.9
		c-2.7,1-25.2,6.7-36.9,6.7s-31.6-3.8-34.5-4.7c-2.9-0.9-9.2-5.7-10-8.1c-0.8-2.3,5.2-79.9,5.2-79.9s-0.9-10.1-1.7-14.1
		c-0.8-4-1.8-12.2-5.1-18.8c-3.3-6.6-6.7-14-6.7-14l0,0c-5.4-7.8-5.8-17.1-0.8-21.8c3.7-3.4,9.3-3.6,14.7-1
		c-0.3-1.3-0.6-2.7-0.8-4.1C21.1,27,28.9,13.1,40.7,11.3c6.9-1.1,13.7,2.2,18.6,8.2c6.6-7.1,15.5-10.1,23.2-6.9
		c9.2,3.9,13.8,15.5,11.6,27.7c5.2-2.3,10.3-2.3,14.3,0.3c8.4,5.5,8.6,20.9,0.5,34.2c-0.8,1.4-1.8,2.7-2.7,4c0,0,0,0,0,0
		C105.9,79.2,101.9,85.3,101.1,88.2z"/>
</g>
</svg>
