<?xml version="1.0" encoding="utf-8"?>
<!-- Generator: Adobe Illustrator 24.2.1, SVG Export Plug-In . SVG Version: 6.00 Build 0)  -->
<svg version="1.1" id="Layer_1" xmlns="http://www.w3.org/2000/svg" xmlns:xlink="http://www.w3.org/1999/xlink" x="0px" y="0px"
	 viewBox="0 0 175.8 163.7" style="enable-background:new 0 0 175.8 163.7;" xml:space="preserve">
<style type="text/css">
	.st0{fill:#E3E0DD;}
</style>
<g>
	<g>
		<g>
			<path class="st0" d="M89.6,2.2c-17.9-5.3-37.8-0.7-52.7,10c-14.8,10.6-25.1,26.3-31,43.4c-6.5,18.7-7.8,39.8-1.1,58.7
				c5.8,16.4,17.4,31,33.1,38.9c8.8,4.4,18.5,6.8,28.2,8.2c10.2,1.4,20.6,2.1,30.9,1.6c9.6-0.5,19.3-2.2,28.2-5.8
				c7.3-3,14-7.1,20.1-12.1c12-9.9,21.1-23.4,26.1-38.1c5.1-14.8,5.8-31.1,1.3-46.1c-4.5-15.1-13.9-28.7-25.9-38.9
				c-12.3-10.3-27.2-17.2-43.1-19.3C99.9,2.1,96.1,1.9,92.2,2c-3.2,0.1-3.2,5.1,0,5c15-0.5,29.7,4,42.3,12c12.6,8,23,19.4,29.5,32.8
				c6.4,13.3,8.3,28.4,5.5,42.8c-2.7,14.4-9.5,27.9-19.4,38.8c-10.2,11.3-23.4,19.2-38.3,22.5c-9.8,2.1-19.8,2.4-29.8,1.9
				c-9.5-0.5-19-1.5-28.1-4c-8.5-2.3-16.7-5.9-23.6-11.4c-6.3-5.1-11.6-11.4-15.6-18.4c-9-15.8-11.2-34.6-7.9-52.4
				C10,54.4,17.8,37.5,30,24.8C42,12.3,58.6,4.4,76,5c4.2,0.1,8.3,0.8,12.3,2C91.4,7.9,92.7,3.1,89.6,2.2L89.6,2.2z"/>
		</g>
	</g>
	<g>
		<g>
			<path class="st0" d="M99,10.3c-0.4,0-0.9,0-1.3-0.1c-6.5,0.9-12.9,1.7-19.4,2.6c-0.4,0.1-0.8,0.3-1.3,0.4
				c-5.8,2.5-11.6,4.9-17.4,7.4c-0.4,0.3-0.7,0.5-1.1,0.8c-4.9,3.8-9.8,7.6-14.8,11.4c-3.8,4.9-7.6,9.8-11.4,14.8
				c-2.1,2.9-3.6,6.2-4.4,9.8c-4.7,11-3.7,7.7-5.3,19.7c-1.6,12.2-1.5,8.5,0.2,20.7c0,6.6,1.7,12.7,5,18.4c1.2,3.2,2.5,6.3,4,9.3
				c2.8,4.9,8.6,12.3,12.6,16.3c10.7-40.7,21.5-81.3,32.2-122c-0.5,0.1-1.1,0.2-1.6,0.2c6.5-0.9,12.9-1.7,19.4-2.6
				c-2.7,0.2-5.3,0.2-8.1-0.2c6.5,0.9,12.9,1.7,19.4,2.6c-2.1-0.4-4.2-1-6.2-1.7c5.8,2.5,11.6,4.9,17.4,7.4c-2.5-1.1-4.8-2.4-7-4
				C98.5,15,86.2,11.7,73,11.6c-13.2,0-25.5,3.4-36.8,10c-11,6.5-19.7,15.2-26.2,26.2C3.4,59.2,0,71.5,0,84.6c0.1,1.7,0.3,3.3,0.4,5
				c0.9,6.5,1.7,12.9,2.6,19.4c2.3,9.5,6.6,17.8,13.1,24.8c3.2,5.5,7.6,9.8,13.1,13.1c7.1,6.5,15.3,10.8,24.8,13.1
				c12.8,2.9,26,2.9,38.8,0c17.7-4,34.4-18.4,43.6-33.5c0.3-0.5,0.6-0.9,0.8-1.4c-3.8,4.9-7.6,9.8-11.4,14.8
				c10.5-12.7,20.2-23.4,24.7-39.9c7.1-26.5-0.2-55.4-19.6-75C112,5.7,82.7-2.2,56.6,5.1C38.1,10.3,22,22.7,12.2,39.2
				C5.1,51.1,4.3,56.3,2.7,68.1C1.1,80,0.4,85.9,4.2,99.2c3.7,13,10.7,24.7,20.3,34.2c15.9,15.6,35.8,21.8,57.4,23.3
				c2.2,0.2,4.2,0.2,6.4,0c7.3-0.5,15.4-1.5,22.6-3.2c9.6-2.3,19.5-6.3,27.5-12.1c-36.6-21-73.2-42-109.8-63
				c0.2,2.8,0.5,5.6,0.7,8.4c-0.4,10.1,1.7,19.4,6.3,28.1c2.9,9.1,8,16.9,15.1,23.5c6.6,7.1,14.4,12.2,23.5,15.1
				c8.7,4.6,18.1,6.7,28.1,6.3c18.9-0.8,38.5-7,51.6-21.4c12.5-13.6,23-32.5,21.4-51.6c-0.2-2.8-0.5-5.6-0.7-8.4
				c0-13.2-3.4-25.5-10-36.8c-6.5-11-15.2-19.7-26.2-26.2c-11.4-6.6-23.7-9.9-36.8-10c-13.2,0-25.5,3.4-36.8,10
				c-1.8,1.3-3.6,2.3-5.5,3.3c5.8-2.5,11.6-4.9,17.4-7.4c-2.5,1-5,1.7-7.7,2.1c6.5-0.9,12.9-1.7,19.4-2.6c-2.2,0.2-4.2,0.2-6.4,0
				c6.5,0.9,12.9,1.7,19.4,2.6c-1.6-0.3-3-0.6-4.5-1.2c5.8,2.5,11.6,4.9,17.4,7.4c-0.4-0.3-0.9-0.5-1.3-0.8
				c4.9,3.8,9.8,7.6,14.8,11.4c-0.3-0.4-0.7-0.7-1-1.1c3.8,4.9,7.6,9.8,11.4,14.8c-0.2-0.3-0.3-0.6-0.5-0.9
				c2.5,5.8,4.9,11.6,7.4,17.4c-0.1-0.3-0.2-0.7-0.2-1c0.9,6.5,1.7,12.9,2.6,19.4c0-0.3,0-0.7,0-1c-0.9,6.5-1.7,12.9-2.6,19.4
				c0.1-0.3,0.2-0.6,0.3-0.9c-2.5,5.8-4.9,11.6-7.4,17.4c0.2-0.3,0.4-0.5,0.5-0.8c-8.7,8.7-17.5,17.5-26.2,26.2
				c0.3-0.2,0.5-0.4,0.8-0.5c-5.8,2.5-11.6,4.9-17.4,7.4c0.4-0.1,0.8-0.1,1.2-0.2c-12.9,0-25.9,0-38.8,0c0.4,0.1,0.8,0.3,1.2,0.4
				c-10.7-6.3-21.5-12.5-32.2-18.8c0.3,0.3,0.7,0.5,1,0.8c-3.8-4.9-7.6-9.8-11.4-14.8c0.2,0.4,0.5,0.7,0.7,1.1
				c-2.5-5.8-4.9-11.6-7.4-17.4c0.1,0.4,0.2,0.8,0.3,1.3c-0.9-6.5-1.7-12.9-2.6-19.4c-0.1,0.5-0.1,1.1-0.2,1.6
				C8.1,74,8.9,67.6,9.8,61.1c-0.2,0.5-0.4,1-0.6,1.5c2.5-5.8,4.9-11.6,7.4-17.4c-0.3,0.5-0.6,0.9-0.9,1.4
				c3.8-4.9,7.6-9.8,11.4-14.8c-5.9,6.8-11.8,13.1-16.7,21c45.3,12.3,90.7,24.6,136,36.8c-0.1-1.7-0.3-3.3-0.4-5
				c-36.6,21-73.2,42-109.8,63c2,1.4,4,2.6,6.3,3.6c7.3,3.4,14.9,7.2,22.8,9.1c7.7,1.8,16.3,2.8,24.2,3.2c8.6,0.4,17.5-1.8,25.9-3
				c12.4-3.5,23.1-9.7,32.2-18.8c9-9.1,15.3-19.8,18.8-32.2c6.9-25.1-0.4-52.6-18.8-71c-0.3-0.3-0.6-0.6-0.9-0.9
				c3.8,4.9,7.6,9.8,11.4,14.8c-0.2-0.4-0.4-0.8-0.6-1.2c3.3,12.3,6.6,24.6,10,36.8c-0.1-0.4-0.1-0.9-0.2-1.3
				c-0.9,6.5-1.7,12.9-2.6,19.4c0.1-0.4,0.2-0.9,0.3-1.3c-2.5,5.8-4.9,11.6-7.4,17.4c0.3-0.4,0.5-0.7,0.8-1.1
				c-8.7,8.7-17.5,17.5-26.2,26.2c0.4-0.3,0.7-0.5,1.1-0.8c-5.8,2.5-11.6,4.9-17.4,7.4c0.4-0.1,0.8-0.3,1.3-0.4
				c-6.5,0.9-12.9,1.7-19.4,2.6c0.4,0,0.9,0,1.3,0.1c10.1,0.4,19.4-1.7,28.1-6.3c9.1-2.9,16.9-8,23.5-15.1
				c7.1-6.6,12.2-14.4,15.1-23.5c4.6-8.7,6.7-18.1,6.3-28.1c-0.8-18.9-7-38.5-21.4-51.6c-4.9-3.8-9.8-7.6-14.8-11.4
				C124.4,13.7,112.2,10.4,99,10.3L99,10.3z"/>
		</g>
	</g>
</g>
</svg>
