<?xml version="1.0" encoding="utf-8"?>
<!-- Generator: Adobe Illustrator 24.2.1, SVG Export Plug-In . SVG Version: 6.00 Build 0)  -->
<svg version="1.1" id="Layer_1" xmlns="http://www.w3.org/2000/svg" xmlns:xlink="http://www.w3.org/1999/xlink" x="0px" y="0px"
	 viewBox="0 0 312.8 390.8" style="enable-background:new 0 0 312.8 390.8;" xml:space="preserve">
<style type="text/css">
	.st0{fill:#E3E0DD;stroke:#E3E0DD;stroke-miterlimit:10;}
	.st1{fill:#222222;}
	.st2{fill:none;stroke:#222222;stroke-width:3;stroke-miterlimit:10;}
	.st3{fill:#E3E0DD;stroke:#222222;stroke-width:3;stroke-miterlimit:10;}
</style>
<rect x="0.5" y="0.5" class="st0" width="311.8" height="389.8"/>
<g>
	<path class="st1" d="M151.7,148.7c-0.8,0.3-1.3,1.1-1.2,1.9c0.1,0.8,0.7,1.5,1.4,1.8c0.3,0.1,0.7,0.2,1,0.1
		c0.6-0.1,1.1-0.6,1.4-1.2c0.4-0.7,0.7-1.5,0.4-2.3s-1.2-1.3-1.9-0.9"/>
	<g>
		<path class="st1" d="M151.4,147.7c-1.1,0.4-2,1.5-1.9,2.8c0,1.2,0.8,2.3,1.9,2.8c0.6,0.3,1.4,0.4,2.1,0.2c0.7-0.2,1.1-0.7,1.5-1.3
			c0.7-1,1.1-2.3,0.7-3.4c-0.5-1.3-2.1-2.1-3.4-1.4c-0.5,0.2-0.6,0.9-0.4,1.4c0.3,0.5,0.9,0.6,1.4,0.4c0.1-0.1-0.1,0-0.1,0h0.1
			c0.1-0.1-0.1,0-0.1,0h0.1h0.1c-0.2,0-0.2,0-0.1,0h0.1h0.1c0.1,0,0,0-0.1,0c0,0,0.1,0.1,0.2,0.1c0.2,0.1-0.1-0.1,0,0
			s0.1,0.1,0.2,0.2c0.1,0.1-0.1-0.2-0.1-0.1c0,0,0,0.1,0.1,0.1c0.1,0.1,0-0.1,0-0.1v0.1v0.1c0.1,0.2,0,0,0-0.1c0,0.1,0,0.2,0,0.3
			v0.1c0,0.2,0.1-0.2,0,0c0,0.1-0.1,0.6-0.2,0.6c0,0,0.1-0.2,0,0c0,0,0,0.1-0.1,0.1c0,0.1-0.1,0.2-0.1,0.3s-0.1,0.2-0.1,0.2
			l-0.1,0.1c0.1,0,0.1-0.1,0,0s-0.1,0.1-0.2,0.2l-0.1,0.1c-0.2,0.1,0.2-0.1,0,0c0,0-0.1,0-0.1,0.1c-0.1,0.1,0-0.1,0.1,0
			c0,0-0.2,0.1-0.3,0.1c0,0,0.2,0,0,0h-0.2c0,0,0.3,0.1,0,0c-0.1,0-0.1,0-0.2,0c-0.1,0-0.1,0-0.1-0.1c-0.1,0,0.2,0.1,0.1,0
			c-0.1,0-0.1-0.1-0.2-0.1c0,0-0.1,0-0.1-0.1c-0.1-0.1,0,0,0,0c-0.1-0.1-0.2-0.1-0.2-0.2l-0.1-0.1c-0.1-0.1,0,0,0,0.1l-0.1-0.2
			c0,0,0-0.1-0.1-0.1c-0.1-0.1,0,0,0,0.1l-0.1-0.3c0,0,0-0.2,0,0s0,0,0-0.1v-0.1v-0.1c0-0.1,0,0,0,0.1c0-0.1,0-0.2,0.1-0.3v-0.1
			c0-0.1-0.1,0.2,0,0c0-0.1,0.1-0.2,0.1-0.2c0.1-0.1-0.1,0.2,0,0.1l0.1-0.1l0.1-0.1c0.1-0.1-0.2,0.1,0,0c0,0,0.1,0,0.1-0.1
			c0.2-0.1-0.2,0.1,0,0c0.5-0.2,0.9-0.7,0.7-1.2C152.5,147.9,151.9,147.5,151.4,147.7L151.4,147.7z"/>
	</g>
</g>
<path class="st2" d="M221.2,117.7c0,0,18.7,25.9,19.4,48.2s-16.6,59-67.6,64.8s-77.7-35.3-77.7-35.3"/>
<path class="st2" d="M128.4,127c0,14.4-20.9,38.1-20.9,38.1c-2.2-6.5-38.9-14.4-38.1,9.3c0.7,23.7,33.1,16.6,33.1,16.6"/>
<path class="st2" d="M85.2,168.8c0,0,11.5,2.2,13.7,9.4"/>
<path class="st2" d="M213.4,125.2c0,0,8.9-11.5,3.8-22.1c-4.5-9.3-13.9-24-59.3-25.1c0,0-79.8,0.9-81.3,82.9"/>
<path class="st2" d="M193.8,97.5c0,0,13.7,20.2-11.5,29.5"/>
<path class="st2" d="M171.5,97.5c0,0,7.2,20.9-21.6,25.2"/>
<path class="st2" d="M153.5,97.5c0,0-1.4,21.6-25.2,25.2"/>
<g>
	<path class="st1" d="M207.3,148.7c-0.8,0.3-1.3,1.1-1.2,1.9c0.1,0.8,0.7,1.5,1.4,1.8c0.3,0.1,0.7,0.2,1,0.1
		c0.6-0.1,1.1-0.6,1.4-1.2c0.4-0.7,0.7-1.5,0.4-2.3s-1.2-1.3-1.9-0.9"/>
	<g>
		<path class="st1" d="M207.1,147.7c-1.1,0.4-2,1.5-1.9,2.8c0,1.2,0.8,2.3,1.9,2.8c0.6,0.3,1.4,0.4,2.1,0.2c0.7-0.2,1.1-0.7,1.5-1.3
			c0.7-1,1.1-2.3,0.7-3.4c-0.5-1.3-2.1-2.1-3.4-1.4c-0.5,0.2-0.6,0.9-0.4,1.4c0.3,0.5,0.9,0.6,1.4,0.4c0.1-0.1-0.1,0-0.1,0h0.1
			c0.1-0.1-0.1,0-0.1,0h0.1h0.1c-0.2,0-0.2,0-0.1,0h0.1h0.1c0.1,0,0,0-0.1,0c0,0,0.1,0.1,0.2,0.1c0.2,0.1-0.1-0.1,0,0
			s0.1,0.1,0.2,0.2c0.1,0.1-0.1-0.2-0.1-0.1c0,0,0,0.1,0.1,0.1c0.1,0.1,0-0.1,0-0.1v0.1v0.1c0.1,0.2,0,0,0-0.1c0,0.1,0,0.2,0,0.3
			v0.1c0,0.2,0.1-0.2,0,0c0,0.1-0.1,0.6-0.2,0.6c0,0,0.1-0.2,0,0c0,0,0,0.1-0.1,0.1c0,0.1-0.1,0.2-0.1,0.3s-0.1,0.2-0.1,0.2
			l-0.1,0.1c0.1,0,0.1-0.1,0,0s-0.1,0.1-0.2,0.2l-0.1,0.1c-0.2,0.1,0.2-0.1,0,0c0,0-0.1,0-0.1,0.1c-0.1,0.1,0-0.1,0.1,0
			c0,0-0.2,0.1-0.3,0.1c0,0,0.2,0,0,0h-0.2c0,0,0.3,0.1,0,0c-0.1,0-0.1,0-0.2,0c-0.1,0-0.1,0-0.1-0.1c-0.1,0,0.2,0.1,0.1,0
			c-0.1,0-0.1-0.1-0.2-0.1c0,0-0.1,0-0.1-0.1c-0.1-0.1,0,0,0,0c-0.1-0.1-0.2-0.1-0.2-0.2l-0.1-0.1c-0.1-0.1,0,0,0,0.1l-0.1-0.2
			c0,0,0-0.1-0.1-0.1c-0.1-0.1,0,0,0,0.1l-0.1-0.3c0,0,0-0.2,0,0s0,0,0-0.1v-0.1v-0.1c0-0.1,0,0,0,0.1c0-0.1,0-0.2,0.1-0.3v-0.1
			c0-0.1-0.1,0.2,0,0c0-0.1,0.1-0.2,0.1-0.2c0.1-0.1-0.1,0.2,0,0.1l0.1-0.1l0.1-0.1c0.1-0.1-0.2,0.1,0,0c0,0,0.1,0,0.1-0.1
			c0.2-0.1-0.2,0.1,0,0c0.5-0.2,0.9-0.7,0.7-1.2C208.2,147.9,207.6,147.5,207.1,147.7L207.1,147.7z"/>
	</g>
</g>
<path class="st2" d="M161.1,174.4c0,0,5.5,8.7,21.2,9s20.8-9,20.8-9"/>
<g>
	<g>
		<path class="st1" d="M187.6,151.2c1.7,0.9,2.9,2.3,3.9,3.9c1,1.7,2,3.7,2.1,5.7c0.2,3.3-2.2,6.5-5.5,7.3c-1.2,0.3-0.7,2.2,0.5,1.9
			c3.1-0.8,5.6-3.3,6.6-6.4c1.1-3.5-0.4-7.3-2.4-10.2c-1.1-1.6-2.5-3.1-4.2-4C187.5,148.8,186.5,150.6,187.6,151.2L187.6,151.2z"/>
	</g>
</g>
<path class="st2" d="M71.8,183.4c0,0,1.9,55.3-3.9,59.1"/>
<path class="st2" d="M92,195.4c0,0-0.4,42.7-4,47.1"/>
<path class="st2" d="M112.5,213.3c0,0-0.7,22.6-3.5,28.6"/>
<path class="st2" d="M220.1,210.8c0,0,3.6,28,7.2,31"/>
<path class="st2" d="M206.2,222.3c0,0,0.8,17.9,2.2,19.6"/>
<line class="st2" x1="189.9" y1="241.9" x2="188.1" y2="232.1"/>
<path class="st2" d="M6.7,378.2c0,0,16.6-64.8,36-87.1c19.4-22.3,75.6-37.4,75.6-37.4"/>
<path class="st2" d="M305.4,374.6c0,0-36.7-77-54-89.2c-17.3-12.2-69.3-31.7-69.3-31.7"/>
<path class="st3" d="M120.2,231.2c0,0-35.8,1.4-40.8,11.3s0,25,0,25s7.7-5.1,12.6-2.1s53.8,34.5,60.7,33.4"/>
<path class="st2" d="M117.5,236.5c0,0-21.9-0.9-22.3,6s26.6,29.8,42.1,37.9"/>
<path class="st3" d="M177.1,298.8c0,0,11.3-34.8,17.3-40.4l3.1,1.3c0,0,1.4-16.8-11.3-20.3c-8.9-2.5-8.9-2.5-8.9-2.5"/>
<path class="st2" d="M177.7,239.7c0,0,4.9-0.7,8.6,5.8c3.6,6.5-3.9,25.5-3.9,25.5"/>
<g>
	<line class="st2" x1="118.3" y1="253.7" x2="121.2" y2="219.3"/>
	<path class="st3" d="M182.1,253.7c0,0-5.8,45.1-14.2,45.1s-49.7-45.1-49.7-45.1"/>
	<path class="st2" d="M182.1,253.7c0,0-6.6-13.4-4.6-23.6"/>
</g>
<path class="st2" d="M151.5,292.9c13.3,5.9,4.1,72-1,76"/>
<path class="st2" d="M148.6,371.8c0,0-5,8.7-7.7,8"/>
<path class="st2" d="M148.6,372.6c0,0,5.9,7.5,2.5,8.8"/>
<path class="st2" d="M174.9,295.9c0,0,9.5,57,4.7,63.5"/>
<path class="st2" d="M181,362.9c0,0,3.5,5.4,3.4,7.2"/>
<path class="st2" d="M181,362.9c0,0-4.1,6.9-6.1,7.2"/>
<path class="st2" d="M172.3,79c0,0-53.5-45.6-112.3-0.9C33.7,98.1,79.1,158,79.1,158"/>
<path class="st3" d="M78.4,159.5c0,0,37.5-88.4,93.9-80.5c10.5,1.5,17.6,3.3,17.6,3.3c0.8-4.2-13-12.3-24.2-14.7
	c-14.5-3-54.4-3.8-80.6,29.9s-26.4,45.2-24.4,52.8S73.6,160.2,78.4,159.5z"/>
</svg>
